<?xml version="1.0" encoding="utf-8"?>
<!-- Generator: Adobe Illustrator 21.0.0, SVG Export Plug-In . SVG Version: 6.00 Build 0)  -->
<svg version="1.1" id="Layer_1" xmlns="http://www.w3.org/2000/svg" xmlns:xlink="http://www.w3.org/1999/xlink" x="0px" y="0px"
	 viewBox="0 0 512 512" style="enable-background:new 0 0 512 512;" xml:space="preserve">
<g>
	<path d="M511.1,280.2L441.9,44.7v-0.1c-4.8-14.5-16.3-23.2-30.7-23.2c-14.9,0-27,8.6-31.6,22.3l-45.3,135.2H177.6L132.3,43.8
		c-4.6-13.8-16.7-22.3-31.6-22.3c-14.7,0-27,9.4-30.7,23.2L0.9,280.2c-2.8,9.3,0.8,19.9,8.6,25.8l234,175.5c1.7,2.3,3.9,4,6.6,5
		l5.5,4.1l5.4-4.1c3.1-1.1,5.7-3,7.6-5.7l233.9-174.9C510.3,300.1,513.8,289.5,511.1,280.2z M408.1,52.3c0.6-1.1,1.8-1.2,2.2-1.2
		c0.7,0,1.6,0.2,2.2,1.9l37.7,126.9h-84.8L408.1,52.3z M98.6,53c0.6-1.7,1.5-1.8,2.2-1.8c1.7,0,1.8,0.1,2.2,1.1L145.6,180H61.9
		L98.6,53z M31.6,284.3l17.9-61.8L178,394.1L31.6,284.3z M78.5,210.4h77.5l57.7,180.5L78.5,210.4z M256.4,422.3l-68.1-211.9h136.1
		L256.4,422.3z M356.7,210.4h75.9L299,388.7L356.7,210.4z M330.9,397l131.6-175.7l18.7,63L330.9,397z"/>
</g>
</svg>
